<?xml version="1.0" encoding="utf-8"?><svg id="Слой_1" xmlns="http://www.w3.org/2000/svg" viewBox="0 0 322.9 28.2"><style>.st0{fill:#fff}</style><g id="Pexapark-logo---White"><g id="Pexapark-logo---Black_2_" transform="translate(28 21)"><g id="Group_1_" transform="translate(0 .882)"><path id="Combined-Shape_2_" class="st0" d="M272.6 6.4h-4.9v-25.2c0-1.7 1.3-3 3-3h1.9V6.4z"/><path id="Combined-Shape_1_" class="st0" d="M294.9 6.4h-7.2L274.1-5.4c-1.3-1.1-1.4-3-.3-4.2l.3-.3 13.7-12h7.2L278.3-7.5l16.6 13.9z"/><path id="Combined-Shape-Copy" class="st0" d="M-26.8-21.8c-.6.2-1 .6-1.2 1.2l-.1.2V6.4h4.8v-8h7.9c8.6 0 7.9 0 8.9-.1 1.9-.3 3.6-1 5-2.1C-.6-4.5.1-5.3.7-6.2c.8-1.2 1.2-2.6 1.4-4.2.1-.5.1-1.9 0-2.4-.2-1.7-.7-3.1-1.5-4.4-.5-.8-1.3-1.7-2.2-2.4-1.5-1.1-3.1-1.8-5.1-2.1-.8-.1-.1-.1-10.4-.1-9.3-.1-9.5-.1-9.7 0zM13.4 1.7v-20.6c0-1.7 1.3-3 3-3h21.7v5H18.3v6.6h15.6v5H18.2v6.6h19.9v5H15.4c-1.1 0-2-.9-2-2V1.7zm181.8-3.9H182l-.3.6-2.1 3.8c-1.2 2.1-2.1 4.1-2.1 4.1h-5.7l14.6-26.8c.6-1.2 2-1.8 3.2-1.2.5.2.9.6 1.1 1.1l.1.2c.7 1.2 5.6 10.1 14.8 26.7h-5.8l-4.6-8.5zm-2.6-4.6c-2.3-4.1-4-7.1-4-7.2v-.1l-2.2 3.9-1.9 3.3h8.1zm-80.3 4.6H99.1l-.3.6-2.1 3.8c-1.2 2.1-2.1 4.1-2.1 4.1h-5.7l14.6-26.8c.6-1.2 2-1.8 3.2-1.2.5.2.9.6 1.1 1.1l.1.2c.7 1.2 5.6 10.1 14.8 26.7h-5.8l-4.6-8.5zm-2.6-4.6c-2.3-4.1-4-7.1-4-7.2v-.1l-2.2 3.9-1.9 3.3h8.1zM-7.4-16.9c1.5.1 2.7.6 3.6 1.6.7.7 1.1 1.6 1.3 2.7.1.4.1 1.3 0 1.7-.2 1.1-.6 2-1.3 2.7-.7.8-1.7 1.3-2.8 1.6-.7.1 0 .1-8.8.1h-8v-10.4h16zM253.9 6.4h-7.2l-7.8-7.9h-13.4v-4.9h16c1.8 0 3.3-.4 4.5-1.2 1.4-.9 2.1-2.3 2.1-4 0-3.5-2.2-5.3-6.6-5.3h-16V6.4h-4.9v-26.6c0-.9.7-1.6 1.6-1.6h18.5c3.6 0 6.5.8 8.7 2.4 2.5 1.8 3.8 4.4 3.8 7.9 0 2.4-.7 4.4-2.2 6.1-1.4 1.6-3.2 2.7-5.6 3.3l8.5 8.5zM135.2-21.8h9.7c10.3 0 9.6 0 10.4.1 1.9.3 3.6 1 5.1 2.1.9.7 1.7 1.6 2.2 2.4.8 1.3 1.3 2.7 1.5 4.4.1.5.1 1.9 0 2.4-.2 1.6-.6 3-1.4 4.2-.6.9-1.3 1.7-2.2 2.4-1.4 1.1-3.1 1.8-5 2.1-.9.1-.3.1-8.9.1h-7.9v8H134v-26.8l.1-.2c.2-.7.6-1.1 1.1-1.2zm19.4 4.9H138.7v10.4h8c8.8 0 8.1 0 8.8-.1 1-.2 2-.8 2.8-1.6.7-.7 1.1-1.6 1.3-2.7.1-.4.1-1.3 0-1.7-.2-1.1-.6-2-1.3-2.7-1-.9-2.2-1.5-3.7-1.6z"/></g></g></g><g id="Group-4-Copy-6_1_" transform="translate(.64 .705)"><path id="Fill-10_1_" class="st0" d="M86.4 11.6h3.3V8.1l-9-9h-3.5v3.5l9.2 9"/><path id="Fill-11_1_" class="st0" d="M96.1 15h-3.5v3.4l9.1 9.1h3.4v-3.4l-9-9.1"/><path id="Fill-12_1_" class="st0" d="M86.4 15l-9.2 9.1v3.4h3.5l9-8.9V15h-3.3"/><path id="Fill-13_1_" class="st0" d="M101.6-.9l-9 9.2v3.3h3.6l8.9-9.1V-.9z"/></g></svg>